<svg width="151" height="33" viewBox="0 0 151 33" fill="none" xmlns="http://www.w3.org/2000/svg">
<path d="M19.2 26.6667L5.2 11.6667V26H2.8V5.33333L16.8 20.3333V6H19.2V26.6667ZM30.2222 26.2667C28.9333 26.2667 27.7556 25.9556 26.6889 25.3333C25.6222 24.7111 24.7704 23.8741 24.1333 22.8222C23.5111 21.7704 23.2 20.6074 23.2 19.3333C23.2 18.0444 23.5111 16.8815 24.1333 15.8444C24.7704 14.7926 25.6222 13.9556 26.6889 13.3333C27.7556 12.7111 28.9333 12.4 30.2222 12.4C31.5259 12.4 32.7037 12.7111 33.7556 13.3333C34.8222 13.9556 35.6667 14.7926 36.2889 15.8444C36.9259 16.8815 37.2444 18.0444 37.2444 19.3333C37.2444 20.6074 36.9259 21.7704 36.2889 22.8222C35.6667 23.8741 34.8222 24.7111 33.7556 25.3333C32.7037 25.9556 31.5259 26.2667 30.2222 26.2667ZM30.2222 24C31.0815 24 31.8593 23.7926 32.5556 23.3778C33.2519 22.9481 33.8074 22.3852 34.2222 21.6889C34.637 20.9778 34.8444 20.1926 34.8444 19.3333C34.8444 18.4741 34.637 17.6963 34.2222 17C33.8074 16.2889 33.2519 15.7259 32.5556 15.3111C31.8593 14.8815 31.0815 14.6667 30.2222 14.6667C29.363 14.6667 28.5852 14.8815 27.8889 15.3111C27.1926 15.7259 26.637 16.2889 26.2222 17C25.8074 17.6963 25.6 18.4741 25.6 19.3333C25.6 20.1926 25.8074 20.9778 26.2222 21.6889C26.637 22.3852 27.1926 22.9481 27.8889 23.3778C28.5852 23.7926 29.363 24 30.2222 24ZM41.4701 26V14.6667H38.4479V12.6667H41.5368V8.22222H43.8035V12.6667H47.1146V14.6667H43.8701V26H41.4701ZM55.6139 26.2667C54.2213 26.2667 52.9694 25.9556 51.8583 25.3333C50.762 24.7111 49.8954 23.8667 49.2583 22.8C48.6361 21.7185 48.325 20.5185 48.325 19.2C48.325 17.9407 48.6287 16.8 49.2361 15.7778C49.8435 14.7407 50.6583 13.9185 51.6806 13.3111C52.7176 12.7037 53.8583 12.4 55.1028 12.4C56.3324 12.4 57.4583 12.6963 58.4806 13.2889C59.5028 13.8667 60.3176 14.6519 60.925 15.6444C61.5324 16.637 61.8361 17.763 61.8361 19.0222V20H53.125C52.7398 20 52.3472 19.9852 51.9472 19.9556C51.5472 19.9259 51.1546 19.8815 50.7694 19.8222C50.9324 21.0074 51.4657 22 52.3694 22.8C53.288 23.6 54.3769 24 55.6361 24C56.4806 24 57.2657 23.8074 57.9917 23.4222C58.7176 23.037 59.3028 22.5259 59.7472 21.8889L60.4139 24.6222C59.7769 25.1407 59.0435 25.5481 58.2139 25.8444C57.3991 26.1259 56.5324 26.2667 55.6139 26.2667ZM50.7028 18.2C51.5028 18.0667 52.3102 18 53.125 18H57.5472C57.8731 18 58.1917 18.0148 58.5028 18.0444C58.8287 18.0593 59.1546 18.0815 59.4806 18.1111C59.2731 17.0741 58.7546 16.2222 57.925 15.5556C57.0954 14.8741 56.1546 14.5333 55.1028 14.5333C54.0213 14.5333 53.0731 14.8963 52.2583 15.6222C51.4435 16.3333 50.925 17.1926 50.7028 18.2ZM68.484 26.2667C67.8025 26.2667 67.0692 26.1407 66.284 25.8889C65.5137 25.6222 64.847 25.1852 64.284 24.5778L64.9507 21.9556C65.3655 22.6519 65.8988 23.2074 66.5507 23.6222C67.2025 24.0222 67.8988 24.2222 68.6396 24.2222C69.3507 24.2222 69.884 24.0519 70.2396 23.7111C70.5951 23.3556 70.7729 22.9259 70.7729 22.4222C70.7729 21.8444 70.5803 21.4222 70.1951 21.1556C69.8248 20.8889 69.4914 20.7037 69.1951 20.6L67.3951 19.9111C67.0692 19.7778 66.6766 19.5852 66.2174 19.3333C65.7581 19.0667 65.3581 18.6889 65.0174 18.2C64.6766 17.7111 64.5063 17.0741 64.5063 16.2889C64.5063 15.5778 64.6766 14.9259 65.0174 14.3333C65.3581 13.7407 65.8396 13.2741 66.4618 12.9333C67.084 12.5778 67.8174 12.4 68.6618 12.4C69.3285 12.4 70.0248 12.5185 70.7507 12.7556C71.4766 12.9926 72.0914 13.3926 72.5951 13.9556L71.9285 16.5778C71.5729 15.9259 71.0914 15.4074 70.484 15.0222C69.8766 14.637 69.247 14.4444 68.5951 14.4444C67.9877 14.4444 67.5062 14.6148 67.1507 14.9556C66.81 15.2963 66.6396 15.6889 66.6396 16.1333C66.6396 16.4889 66.7581 16.8074 66.9951 17.0889C67.2322 17.3704 67.5877 17.6 68.0618 17.7778L69.8618 18.4667C70.1877 18.5852 70.5877 18.7778 71.0618 19.0444C71.5507 19.3111 71.9803 19.6963 72.3507 20.2C72.7211 20.7037 72.9062 21.3852 72.9062 22.2444C72.9062 23.4444 72.484 24.4148 71.6396 25.1556C70.81 25.8963 69.7581 26.2667 68.484 26.2667ZM88.0174 26.2667C86.8322 26.2667 85.7581 26.0296 84.7951 25.5556C83.847 25.0815 83.0914 24.5037 82.5285 23.8222L83.2618 20.7556C83.6766 21.5852 84.2988 22.3333 85.1285 23C85.9581 23.6667 86.9507 24 88.1063 24C89.1581 24 90.0248 23.6667 90.7063 23C91.4025 22.3333 91.7507 21.5111 91.7507 20.5333C91.7507 19.8222 91.5803 19.237 91.2396 18.7778C90.8988 18.3185 90.5137 17.9556 90.084 17.6889C89.6544 17.4222 89.3137 17.2296 89.0618 17.1111L86.6174 15.8667C86.2322 15.6593 85.7507 15.3704 85.1729 15C84.61 14.6296 84.1137 14.1185 83.684 13.4667C83.2544 12.8148 83.0396 11.9704 83.0396 10.9333C83.0396 9.92593 83.2692 9.02963 83.7285 8.24444C84.2025 7.45926 84.8544 6.84444 85.684 6.4C86.5285 5.95556 87.4914 5.73333 88.5729 5.73333C89.6396 5.73333 90.5803 5.92593 91.3951 6.31111C92.21 6.68148 92.847 7.06667 93.3063 7.46667L92.5729 10.5333C92.2025 9.91111 91.6544 9.32593 90.9285 8.77778C90.2025 8.22963 89.3803 7.95555 88.4618 7.95555C87.5729 7.95555 86.8618 8.22222 86.3285 8.75555C85.7951 9.27407 85.5285 9.91852 85.5285 10.6889C85.5285 11.2815 85.6618 11.7704 85.9285 12.1556C86.21 12.5407 86.5211 12.8444 86.8618 13.0667C87.2174 13.2889 87.5063 13.4593 87.7285 13.5778L90.2174 14.8222C90.5137 14.9704 90.884 15.1778 91.3285 15.4444C91.7877 15.7111 92.2396 16.0667 92.684 16.5111C93.1285 16.9407 93.4988 17.4741 93.7951 18.1111C94.0914 18.7333 94.2396 19.4889 94.2396 20.3778C94.2396 21.5185 93.9655 22.5333 93.4174 23.4222C92.884 24.3111 92.1507 25.0074 91.2174 25.5111C90.284 26.0148 89.2174 26.2667 88.0174 26.2667ZM96.484 32.6667L100.817 24.0444L95.1729 12.6667H97.884L100.728 18.4444C100.98 18.963 101.225 19.4741 101.462 19.9778C101.699 20.4815 101.936 21.0889 102.173 21.8C102.425 21.0889 102.662 20.4815 102.884 19.9778C103.121 19.4593 103.373 18.9481 103.64 18.4444L106.528 12.6667H109.084L99.084 32.6667H96.484ZM111.477 26V12.6667H113.699V14.8222C114.188 14.037 114.818 13.437 115.588 13.0222C116.373 12.6074 117.218 12.4 118.122 12.4C119.07 12.4 119.944 12.637 120.744 13.1111C121.559 13.5704 122.218 14.2444 122.722 15.1333C123.225 16.0074 123.477 17.0741 123.477 18.3333V26H121.077V18.6667C121.077 17.6148 120.759 16.6889 120.122 15.8889C119.499 15.0741 118.618 14.6667 117.477 14.6667C116.544 14.6667 115.707 15.0074 114.966 15.6889C114.24 16.3556 113.877 17.3259 113.877 18.6V26H111.477Z" fill="black"/>
<path d="M147.744 18.5096C147.73 18.4324 147.698 18.3584 147.646 18.2904C147.553 18.1682 147.37 18.0391 147.18 18.0154C146.792 17.9665 146.401 17.9734 146.009 17.9719C145.801 17.9711 145.592 17.9711 145.382 17.9711C145.172 17.9711 144.963 17.9711 144.754 17.9719C144.584 17.9726 144.433 18.0231 144.301 18.0933C144.246 18.0842 144.192 18.0765 144.136 18.0765C143.994 18.0765 143.852 18.1055 143.729 18.1605C143.609 18.2148 143.514 18.2873 143.442 18.3805C143.37 18.4752 143.333 18.5783 143.333 18.6891C143.29 18.9442 143.256 19.1993 143.214 19.4544C143.079 20.0959 142.856 20.723 142.541 21.3256C142.311 21.7197 142.03 22.0894 141.704 22.4423C141.475 22.6554 141.23 22.8539 140.97 23.0457C140.67 23.2687 140.363 23.4864 140.039 23.6888C139.782 23.8239 139.518 23.94 139.238 24.0454C138.82 24.1692 138.397 24.2601 137.954 24.3235C137.432 24.3723 136.9 24.4029 136.378 24.354C136.001 24.3036 135.629 24.2295 135.269 24.1279C135.019 24.0386 134.779 23.9316 134.555 23.8087C134.204 23.5918 133.858 23.371 133.536 23.1304C133.214 22.8898 132.915 22.6271 132.631 22.359C132.467 22.1879 132.319 22.0092 132.165 21.8328C132.381 21.7068 132.593 21.5784 132.814 21.4578C133.065 21.321 133.328 21.2019 133.568 21.0537C133.728 20.9521 133.847 20.8185 133.971 20.6917C133.974 20.6879 133.978 20.6848 133.981 20.681C134.139 20.5252 134.246 20.39 134.261 20.1853C134.284 19.8454 133.928 19.5995 133.528 19.5254C133.183 19.4605 132.841 19.4032 132.502 19.3261C131.754 19.1542 131.051 18.8968 130.314 18.7036C129.92 18.5989 129.52 18.5042 129.122 18.4042C128.766 18.3156 128.416 18.2148 128.056 18.1353C127.883 18.0956 127.708 18.0521 127.53 18.0246C127.442 18.0116 127.345 18.004 127.247 18.004C127.073 18.004 126.895 18.0299 126.759 18.1032C126.677 18.1468 126.595 18.1888 126.527 18.2445C126.392 18.3553 126.327 18.4775 126.259 18.618C126.198 18.7433 126.175 18.8831 126.143 19.0152C126.105 19.1695 126.065 19.3215 126.021 19.4765C125.882 19.9669 125.699 20.4503 125.545 20.9376C125.389 21.428 125.261 21.9206 125.157 22.4178C125.1 22.6851 125.037 22.9525 125.007 23.2236C124.973 23.5039 125.051 23.7964 125.333 23.9927C125.729 24.2677 126.26 24.2226 126.743 24.147C127.053 24.0989 127.35 24.0164 127.647 23.9362C127.854 23.8805 128.054 23.8178 128.252 23.7499C128.319 23.8705 128.383 23.9927 128.453 24.1126C128.626 24.4082 128.9 24.6756 129.186 24.9108C129.319 25.02 129.458 25.1247 129.59 25.2346C129.737 25.3538 129.874 25.476 130.024 25.5921C130.291 25.796 130.553 26.0061 130.845 26.1886C131.163 26.3879 131.492 26.5766 131.835 26.7484C132.132 26.8981 132.444 27.028 132.751 27.1624C133.132 27.3312 133.532 27.4679 133.937 27.5955C134.278 27.7032 134.657 27.7643 135.015 27.8284C135.879 27.9797 136.772 28.0522 137.654 27.9575C138.01 27.9186 138.366 27.872 138.72 27.8193C139.072 27.7681 139.421 27.7207 139.765 27.6421C140.568 27.4603 141.33 27.2143 142.04 26.8729C142.708 26.5506 143.325 26.1535 143.879 25.7227C144.404 25.3141 144.879 24.8749 145.347 24.4289C145.867 23.9347 146.362 23.4138 146.744 22.8501C147.085 22.3468 147.403 21.816 147.593 21.2676C147.684 21.0048 147.755 20.7352 147.825 20.4679C147.89 20.222 147.987 19.9806 148.038 19.7324C148.086 19.4979 148.127 19.2596 148.126 19.0213C148.122 18.8052 147.966 18.6219 147.744 18.5096ZM136.337 24.3494C136.354 24.3517 136.371 24.3532 136.388 24.3555C136.314 24.3479 136.24 24.3403 136.166 24.3326C136.222 24.338 136.28 24.3433 136.337 24.3494ZM146.336 19.792C146.26 20.0112 146.208 20.2342 146.142 20.4534C146.081 20.6588 146.026 20.8651 145.94 21.0636C145.865 21.2386 145.781 21.4104 145.692 21.58C145.502 21.9107 145.29 22.2353 145.049 22.5469C144.797 22.8746 144.491 23.1808 144.188 23.4841C143.797 23.8621 143.392 24.2333 142.968 24.5885C142.76 24.7642 142.545 24.936 142.319 25.1002C142.104 25.256 141.87 25.3958 141.638 25.5363C141.376 25.6868 141.107 25.8258 140.825 25.9526C140.528 26.0855 140.218 26.1947 139.901 26.2978C139.123 26.5369 138.287 26.653 137.459 26.7469C136.982 26.7882 136.5 26.7859 136.022 26.7492C135.734 26.7164 135.448 26.669 135.164 26.6186C134.879 26.569 134.593 26.5163 134.318 26.4376C133.918 26.3016 133.534 26.1428 133.151 25.9801C132.777 25.8212 132.415 25.6433 132.07 25.4477C131.728 25.2362 131.423 24.9986 131.108 24.7634C130.923 24.6251 130.758 24.4724 130.577 24.3303C130.416 24.2035 130.252 24.0813 130.101 23.9484C129.981 23.8171 129.877 23.6781 129.784 23.5345C129.649 23.2801 129.521 23.0227 129.385 22.7684C129.307 22.6172 129.217 22.498 129.027 22.4125C128.848 22.3323 128.629 22.3109 128.427 22.3529C128.35 22.3689 128.282 22.4003 128.216 22.4331C128.096 22.4423 127.98 22.4659 127.859 22.5072C127.735 22.5484 127.612 22.5927 127.488 22.6355C127.241 22.7111 126.991 22.7806 126.736 22.8348C126.765 22.6263 126.809 22.4178 126.845 22.2139C126.835 22.2689 126.826 22.3246 126.816 22.3796C126.928 21.7877 127.098 21.1988 127.279 20.6168C127.368 20.3266 127.462 20.0356 127.544 19.7431C127.585 19.5957 127.616 19.4437 127.657 19.294C127.752 19.3154 127.845 19.3375 127.938 19.3589C128.25 19.4284 128.559 19.5086 128.865 19.5873C129.445 19.7362 130.056 19.9035 130.62 20.0776C131.071 20.2174 131.478 20.3488 131.912 20.4595C131.815 20.5107 131.719 20.5626 131.623 20.6145C131.22 20.836 130.818 21.056 130.422 21.2829C130.243 21.386 130.108 21.4868 130.047 21.6563C129.988 21.8175 130.018 21.9939 130.129 22.1375C130.236 22.2773 130.413 22.3819 130.618 22.4239C130.654 22.4316 130.7 22.427 130.74 22.4316C131.152 22.9341 131.606 23.4077 132.138 23.8407C132.384 24.0401 132.648 24.2234 132.921 24.4036C133.254 24.6251 133.591 24.8474 133.966 25.0277C134.682 25.3752 135.497 25.5325 136.329 25.6135C136.74 25.6547 137.152 25.6425 137.563 25.6211C138.02 25.5974 138.481 25.5516 138.926 25.4653C139.832 25.2881 140.664 24.9711 141.371 24.5014C142.001 24.0836 142.633 23.6284 143.111 23.1022C143.595 22.5698 143.966 21.9855 144.232 21.3707C144.483 20.7963 144.645 20.1937 144.767 19.5964C144.792 19.4696 144.814 19.3429 144.838 19.2161C145.204 19.213 145.571 19.2107 145.937 19.2054C146.117 19.2031 146.297 19.2008 146.476 19.197C146.471 19.2482 146.469 19.2986 146.462 19.3497C146.429 19.4987 146.386 19.6453 146.336 19.792ZM145.21 15.7035C145.216 15.7035 145.221 15.7042 145.227 15.705H145.231C145.223 15.705 145.217 15.7042 145.21 15.7035ZM145.25 15.7073C145.244 15.7073 145.238 15.7065 145.232 15.7058C145.238 15.7065 145.243 15.7073 145.25 15.7073ZM148.955 11.3583C148.93 11.2117 148.902 11.0643 148.873 10.9192C148.852 10.8222 148.835 10.7229 148.789 10.6297C148.711 10.4739 148.629 10.3395 148.467 10.2211C148.292 10.0935 148.066 10.0286 147.837 10.0286C147.663 10.0286 147.487 10.066 147.332 10.1424C147.006 10.3036 146.736 10.535 146.456 10.7374C146.184 10.9337 145.896 11.1124 145.605 11.2904C145.521 11.3408 145.444 11.398 145.362 11.45C145.331 11.4324 145.303 11.4126 145.273 11.3942C145.004 11.2262 144.75 11.0398 144.485 10.8687C144.199 10.6824 143.925 10.4907 143.647 10.2982C143.344 10.0905 143.03 9.89722 142.699 9.71468C142.375 9.53748 142.033 9.37938 141.698 9.21288C141.369 9.05019 141.035 8.90355 140.687 8.76683C140.291 8.61102 139.87 8.49493 139.45 8.38571C139.05 8.2826 138.645 8.18483 138.235 8.10769C138.007 8.06568 137.767 8.04506 137.532 8.02826C137.342 8.01298 137.149 8 136.958 8C136.948 8 136.937 8 136.927 8C136.508 8.00229 136.093 8.03284 135.678 8.0611C135.234 8.09165 134.781 8.1222 134.345 8.19629C133.89 8.2719 133.46 8.37349 133.031 8.51631C132.639 8.64692 132.256 8.79968 131.879 8.95549C131.527 9.10213 131.196 9.28391 130.874 9.46874C130.497 9.68566 130.133 9.91632 129.789 10.1638C129.14 10.6289 128.565 11.1559 128.078 11.7242C127.786 12.0633 127.525 12.4177 127.259 12.7667C126.97 13.1463 126.718 13.5313 126.499 13.9376C126.072 14.7274 125.645 15.527 125.331 16.3481C125.205 16.6757 125.478 17.0286 125.904 17.1187C126.006 17.1401 126.108 17.1424 126.207 17.134C126.226 17.1523 126.235 17.1753 126.257 17.1913C126.422 17.3166 126.606 17.3525 126.827 17.3715C127.457 17.4227 128.089 17.4311 128.723 17.4097C128.962 17.4006 129.171 17.3135 129.314 17.1837C129.596 17.1287 129.84 16.9721 129.922 16.746C130.089 16.2824 130.268 15.8264 130.498 15.3804C130.785 14.9091 131.109 14.4554 131.512 14.0354C131.982 13.6015 132.492 13.2021 133.066 12.8492C133.282 12.7293 133.5 12.6102 133.736 12.5109C133.946 12.423 134.161 12.3421 134.379 12.2672C134.882 12.1259 135.395 12.0175 135.923 11.9503C136.402 11.9105 136.891 11.8899 137.37 11.9228C138.02 12.0083 138.658 12.1496 139.273 12.326C139.554 12.4207 139.827 12.5246 140.087 12.6506C140.358 12.7805 140.615 12.9317 140.871 13.0799C141.126 13.2365 141.374 13.3976 141.62 13.5611C141.771 13.6619 141.912 13.7726 142.048 13.8857C141.715 14.2951 141.368 14.696 141.03 15.1008C140.906 15.249 140.805 15.4048 140.737 15.5736C140.634 15.8295 140.72 16.0678 140.95 16.2641C141.104 16.3962 141.342 16.4443 141.563 16.4711C141.835 16.5062 142.106 16.5497 142.38 16.5803C142.669 16.6124 142.959 16.6437 143.248 16.6864C143.505 16.7246 143.762 16.7621 144.021 16.7972C144.35 16.84 144.681 16.8652 145.011 16.8965C145.363 16.9377 145.711 16.9988 146.061 17.0431C146.333 17.0752 146.605 17.1065 146.88 17.1317C147.2 17.1592 147.522 17.1714 147.809 17.0347C148.317 16.7934 148.403 16.2709 148.481 15.8585C148.484 15.8432 148.487 15.8287 148.489 15.8134C148.495 15.7898 148.5 15.7653 148.503 15.7409C148.568 15.3926 148.639 15.0443 148.698 14.696C148.752 14.3997 148.806 14.1026 148.844 13.8047C148.884 13.5084 148.893 13.209 148.909 12.9119C148.922 12.6369 148.951 12.3635 148.983 12.0885C149.016 11.841 148.996 11.6043 148.955 11.3583ZM147.332 12.2833C147.311 12.475 147.298 12.6667 147.288 12.8592C147.252 13.6015 147.193 14.3401 147.073 15.0772C147.036 15.2849 146.999 15.4927 146.962 15.7004C146.949 15.773 146.934 15.8448 146.913 15.9166C146.351 15.8532 145.795 15.7638 145.23 15.7058C145.228 15.7058 145.227 15.705 145.225 15.705C145.049 15.6874 144.872 15.6706 144.695 15.6538C144.226 15.6019 143.762 15.5316 143.296 15.4736C143.091 15.4491 142.886 15.4277 142.682 15.4018C142.72 15.3605 142.758 15.3193 142.795 15.2773C143.027 15.0184 143.252 14.7548 143.471 14.4906C143.536 14.4119 143.566 14.3248 143.576 14.2362C143.577 14.2355 143.58 14.2347 143.581 14.234C143.893 13.9941 143.88 13.613 143.581 13.3716C143.278 13.1288 142.987 12.876 142.659 12.6506C142.322 12.4192 141.974 12.1954 141.608 11.9915C141.303 11.8197 141.004 11.6455 140.679 11.4973C140.306 11.327 139.891 11.1949 139.483 11.0857C138.674 10.8687 137.83 10.6725 136.966 10.6686C136.937 10.6686 136.909 10.6686 136.88 10.6686C136.065 10.6686 135.249 10.7488 134.464 10.9222C133.725 11.0849 132.992 11.3438 132.375 11.6974C131.726 12.0694 131.13 12.4727 130.601 12.9439C130.312 13.1998 130.043 13.4671 129.805 13.7512C129.599 13.9941 129.424 14.253 129.249 14.5089C128.877 15.0527 128.619 15.6317 128.392 16.2167C127.968 16.2152 127.545 16.1969 127.124 16.1648C127.265 15.8333 127.417 15.5049 127.592 15.1818C127.719 14.9588 127.848 14.7365 127.972 14.5127C127.966 14.5242 127.96 14.5356 127.953 14.5463C128.233 14.0415 128.591 13.5687 128.951 13.0967C129.14 12.8523 129.327 12.6079 129.526 12.3711C129.697 12.1702 129.88 11.9785 130.069 11.7883C130.54 11.3476 131.068 10.9436 131.65 10.5862C131.942 10.4181 132.239 10.2577 132.552 10.1118C132.923 9.93923 133.317 9.79411 133.71 9.65281C134.161 9.51763 134.625 9.42597 135.103 9.36793C135.924 9.29231 136.749 9.23121 137.575 9.29995C137.933 9.34883 138.286 9.42903 138.635 9.50999C138.96 9.58637 139.283 9.67191 139.601 9.76433C140.032 9.91632 140.438 10.0989 140.834 10.3005C141.225 10.4976 141.62 10.6847 141.996 10.8978C142.387 11.1414 142.741 11.4225 143.12 11.6776C143.32 11.8128 143.518 11.9495 143.712 12.0908C143.801 12.1588 143.889 12.2306 143.984 12.2932C144.103 12.3711 144.229 12.4437 144.355 12.5162C144.413 12.5521 144.469 12.5888 144.524 12.627C144.829 12.837 145.262 12.8683 145.599 12.7026C145.766 12.6888 145.929 12.6445 146.046 12.5452C146.381 12.2596 146.779 12.0289 147.158 11.7807C147.229 11.7341 147.299 11.686 147.367 11.6371C147.37 11.673 147.372 11.7097 147.373 11.7456C147.378 11.9243 147.353 12.103 147.332 12.2833Z" fill="black"/>
</svg>
